{"glyphs":{":":{"x_min":0,"x_max":224,"ha":224,"o":"m 0 103 q 0 146 30 176 q 60 206 103 206 q 146 206 176 176 q 206 146 206 103 q 206 61 176 30 q 145 0 103 0 q 61 0 30 30 q 0 61 0 103 z m 0 407 q 0 449 30 480 q 60 511 103 511 q 146 511 176 481 q 206 451 206 407 q 206 365 176 334 q 145 304 103 304 q 61 304 30 334 q 0 365 0 407 z"},"$":{"x_min":0,"x_max":452,"ha":452,"o":"m 128 29 l 67 -124 l 22 -88 l 80 56 l 0 100 l 88 245 l 139 203 l 170 284 q 74 383 68 391 q 9 467 9 546 l 170 735 l 341 706 l 406 873 l 452 837 l 289 432 q 336 389 359 361 q 430 275 430 206 q 391 153 352 100 q 294 22 276 0 q 262 -2 253 -2 q 218 -2 170 13 q 154 18 128 29 z m 214 245 l 183 167 q 198 155 229 140 q 260 125 272 125 q 280 125 280 131 q 280 164 259 196 q 245 217 214 245 z m 245 471 l 282 561 q 255 587 220 605 q 184 623 164 623 q 152 623 152 616 q 151 608 151 604 q 151 574 171 546 q 191 519 245 471 z"},"?":{"x_min":0,"x_max":428,"ha":428,"o":"m 174 252 l 119 338 q 154 356 179 381 q 225 426 225 478 q 225 521 200 546 q 174 570 139 570 q 82 570 51 552 q 20 534 0 496 l 0 673 q 37 705 76 720 q 116 736 167 736 q 265 736 328 681 q 397 621 397 514 q 397 443 340 376 q 301 330 232 285 q 181 252 174 252 z m 70 103 q 70 146 100 176 q 130 206 173 206 q 216 206 246 176 q 276 146 276 103 q 276 61 246 30 q 215 0 173 0 q 131 0 100 30 q 70 61 70 103 z"},"'":{"x_min":0,"x_max":167,"ha":167,"o":"m 88 598 l 69 598 q 40 598 20 618 q 0 638 0 666 q 0 695 20 716 q 40 737 69 737 q 98 737 119 716 q 140 695 140 667 q 140 647 132 629 q 131 626 127 621 l 81 514 l 52 514 z"},"a":{"x_min":0,"x_max":395,"ha":395,"o":"m 200 66 l 70 -21 q 0 39 0 131 q 0 190 54 252 q 116 324 200 324 q 202 333 202 338 q 202 354 195 363 q 185 377 161 377 q 144 377 115 368 q 100 364 80 343 q 74 337 63 323 l 63 470 q 88 484 105 490 q 156 510 200 510 q 286 510 317 496 q 360 476 360 416 l 360 0 l 200 0 z m 148 172 q 148 123 200 113 l 200 238 q 176 234 162 216 q 148 197 148 172 z"},"L":{"x_min":0,"x_max":390,"ha":390,"o":"m 0 0 l 0 736 l 184 736 l 184 185 l 344 185 l 344 0 z"},"3":{"x_min":0,"x_max":447,"ha":447,"o":"m 414 225 l 255 0 q 248 -1 244 -1 q 198 -1 149 13 q 69 36 0 91 l 105 241 l 120 241 q 131 197 172 155 q 221 105 276 105 q 287 105 287 131 q 287 194 245 266 q 193 355 113 365 q 141 383 173 424 q 214 476 214 518 q 214 550 190 571 q 173 587 149 587 q 119 587 88 564 q 57 541 46 514 l 46 681 q 65 699 79 708 q 123 736 173 736 q 262 736 312 689 q 362 642 362 567 q 362 520 338 482 q 320 453 282 422 q 324 428 373 358 q 419 292 419 245 q 419 233 414 225 z"},";":{"x_min":0,"x_max":224,"ha":224,"o":"m 0 406 q 0 448 30 479 q 60 510 103 510 q 146 510 176 480 q 206 450 206 406 q 206 364 176 334 q 146 304 103 304 q 62 304 31 334 q 0 364 0 406 z m 129 0 l 105 0 q 67 0 40 26 q 12 53 12 92 q 12 130 39 158 q 66 186 105 186 q 144 186 172 158 q 199 131 199 93 q 199 69 187 43 q 185 39 181 32 l 120 -111 l 82 -111 z"},"J":{"x_min":0,"x_max":328,"ha":328,"o":"m 94 736 l 278 736 l 278 161 l 119 0 l 0 0 l 0 186 l 94 186 z"},"V":{"x_min":0,"x_max":476,"ha":476,"o":"m 0 736 l 180 736 l 180 324 q 180 266 218 221 q 230 206 257 187 l 257 736 l 438 736 l 438 223 l 217 0 q 93 90 73 112 q 0 192 0 319 z"},"\"":{"x_min":0,"x_max":357,"ha":357,"o":"m 261 598 l 243 598 q 215 598 194 618 q 173 638 173 667 q 173 696 194 716 q 214 737 243 737 q 272 737 292 716 q 313 696 313 668 q 313 651 307 635 q 305 630 300 622 l 254 514 l 225 514 z m 88 598 l 69 598 q 40 598 20 618 q 0 638 0 667 q 0 695 20 716 q 40 737 69 737 q 98 737 119 717 q 140 697 140 668 q 140 652 133 635 q 131 630 126 622 l 80 514 l 51 514 z"},"7":{"x_min":0,"x_max":414,"ha":414,"o":"m 268 0 l 67 0 q 67 110 85 204 q 99 280 129 356 q 146 398 205 502 q 224 536 260 596 l 0 596 l 0 736 l 335 736 l 381 596 q 356 559 342 532 q 299 450 280 362 q 268 308 264 254 q 259 201 259 144 q 259 88 263 41 q 264 24 268 0 z"},"S":{"x_min":0,"x_max":457,"ha":457,"o":"m 266 -19 q 257 -20 252 -20 q 190 -20 120 6 q 32 39 0 93 l 105 231 q 122 188 180 147 q 243 102 299 102 q 299 185 228 252 q 161 309 95 367 q 23 445 23 553 q 23 597 104 674 q 180 746 206 746 q 254 746 300 723 q 354 696 380 648 l 295 519 q 295 552 236 592 q 177 631 145 631 q 134 631 134 623 q 134 555 209 489 q 278 431 348 374 q 424 296 424 202 q 424 186 424 171 q 421 156 420 149 z"},"Z":{"x_min":0,"x_max":419,"ha":419,"o":"m 334 0 l 0 0 l 1 177 q 1 250 54 366 q 115 500 206 590 l 27 590 l 27 736 l 331 736 l 331 570 q 328 570 295 510 q 253 434 227 360 q 190 253 190 163 l 383 163 z"},"x":{"x_min":0,"x_max":414,"ha":414,"o":"m 304 269 q 349 228 365 191 q 381 154 381 103 l 381 0 l 225 0 l 225 84 q 225 124 192 164 q 181 177 158 196 l 158 0 l 0 0 l 0 159 l 77 239 q 32 279 16 316 q 1 354 1 405 l 1 508 l 156 508 l 156 424 q 156 384 189 344 q 200 331 223 312 l 223 508 l 381 508 l 381 349 z"},")":{"x_min":0,"x_max":285,"ha":285,"o":"m 92 -51 l 55 -51 q 57 -51 79 1 q 107 65 125 139 q 151 243 151 335 q 151 436 112 524 q 85 586 39 638 q 6 676 0 676 l 90 799 q 96 799 135 748 q 187 681 220 597 q 267 478 267 351 q 267 269 222 165 q 190 92 138 13 q 96 -51 92 -51 z"},"&":{"x_min":0,"x_max":561,"ha":561,"o":"m 337 337 l 406 446 l 507 446 l 400 274 q 444 222 466 188 q 532 85 532 0 l 363 0 q 356 27 351 44 q 334 95 310 130 l 228 0 q 162 0 121 15 q 80 30 44 71 q 23 95 12 127 q 0 159 0 190 q 0 240 23 286 q 46 333 88 368 q 44 409 30 428 q -1 472 -1 528 q -1 544 0 552 l 191 719 q 230 719 277 672 q 336 613 336 526 q 336 507 333 486 l 261 402 z m 171 174 q 183 165 194 160 q 205 156 216 156 q 232 156 242 168 q 253 179 257 206 q 208 263 146 319 q 138 304 134 286 q 130 269 130 257 q 130 228 143 205 q 152 188 171 174 z m 188 467 q 204 479 204 502 q 204 531 184 560 q 165 590 144 590 q 138 590 131 585 q 130 577 130 572 q 130 511 188 467 z"},"_":{"x_min":0,"x_max":872,"ha":872,"o":"m 881 -75 l 881 -140 l -5 -140 l -5 -75 z"},"v":{"x_min":0,"x_max":419,"ha":419,"o":"m 199 -5 q 193 -5 148 25 q 88 65 52 109 q 0 173 0 240 l 0 508 l 155 508 l 155 284 q 155 232 188 204 q 199 195 222 186 l 222 508 l 380 508 l 380 174 z"},"O":{"x_min":0,"x_max":476,"ha":476,"o":"m 0 557 l 241 749 l 437 583 l 437 146 l 243 -2 q 185 -2 105 59 q 0 139 0 255 z m 257 526 l 180 591 l 180 319 q 180 245 218 208 q 230 196 257 185 z"},"(":{"x_min":0,"x_max":285,"ha":285,"o":"m 175 773 l 212 773 q 210 773 188 721 q 160 655 142 583 q 116 478 116 386 q 116 285 155 197 q 182 135 228 83 q 261 45 267 45 l 177 -78 q 171 -78 132 -27 q 80 40 47 124 q 0 243 0 370 q 0 452 45 556 q 78 633 129 710 q 170 773 175 773 z"},"C":{"x_min":0,"x_max":374,"ha":374,"o":"m 0 598 l 201 752 l 351 599 l 246 459 q 232 498 222 517 q 191 576 158 576 l 158 320 q 158 237 223 204 q 264 183 324 183 q 331 183 338 183 q 340 183 343 184 l 343 0 q 190 0 106 50 q 0 113 0 254 z"},"W":{"x_min":0,"x_max":729,"ha":729,"o":"m 479 0 l 347 132 l 216 0 q 205 0 160 29 q 96 71 56 129 q 0 212 0 319 l 0 736 l 181 736 l 181 324 q 181 267 219 221 q 231 206 257 187 l 257 736 l 438 736 l 438 324 q 438 267 475 221 q 487 206 512 187 q 525 213 531 250 q 537 287 537 329 q 537 409 518 492 q 498 574 470 611 l 621 707 q 647 678 670 597 q 694 516 694 426 q 694 300 649 198 q 594 74 479 0 z"},"A":{"x_min":0,"x_max":512,"ha":512,"o":"m 0 0 l 123 705 l 324 755 l 474 0 l 289 0 l 265 142 l 141 142 l 117 0 z m 201 480 l 161 259 l 241 259 z"},"f":{"x_min":0,"x_max":382,"ha":382,"o":"m 239 -1 l 68 -1 l 68 424 l 0 424 l 42 508 l 68 508 l 68 567 l 251 752 l 428 576 l 333 480 l 239 574 l 239 508 l 284 508 l 284 424 l 239 424 z"},"Q":{"x_min":0,"x_max":471,"ha":471,"o":"m 0 557 l 242 749 l 437 583 l 437 146 l 363 69 l 458 0 l 335 -105 q 335 -92 288 -61 q 186 7 104 7 q 80 7 62 5 q 45 3 29 0 l 94 69 q 62 103 47 128 q 0 204 0 288 z m 257 526 l 181 591 l 181 302 q 181 228 219 185 q 231 171 257 157 z"},"w":{"x_min":0,"x_max":637,"ha":637,"o":"m 223 508 l 379 508 l 379 244 q 379 206 411 173 q 421 163 443 148 l 443 508 l 600 508 l 600 175 l 420 -5 l 302 97 l 199 -6 q 193 -6 148 25 q 89 66 52 111 q 0 176 0 241 l 0 508 l 155 508 l 155 244 q 155 205 188 173 q 199 163 222 148 l 222 508 l 380 508 z"},"-":{"x_min":0,"x_max":228,"ha":228,"o":"m 201 344 l 201 261 l 0 261 l 0 344 z"},"E":{"x_min":0,"x_max":404,"ha":404,"o":"m 0 595 l 184 735 l 377 735 l 340 575 l 180 575 l 180 434 l 340 434 l 340 323 l 180 323 l 180 182 l 377 183 l 340 0 l 0 0 z"},"s":{"x_min":0,"x_max":351,"ha":351,"o":"m 192 -3 q 144 -3 92 18 q 22 46 0 96 l 90 185 q 90 143 152 95 q 172 79 215 56 q 217 62 217 75 q 217 117 164 166 q 110 216 59 262 q 3 316 3 357 q 3 368 6 379 l 135 508 q 145 510 152 510 q 194 510 250 485 q 306 460 324 428 l 246 323 q 246 355 198 399 q 151 443 133 436 q 133 389 187 339 q 237 297 287 255 q 341 204 341 154 q 341 142 338 128 z"},"l":{"x_min":0,"x_max":205,"ha":205,"o":"m 154 0 l 0 0 l 0 736 l 154 736 z"},"8":{"x_min":0,"x_max":442,"ha":442,"o":"m 0 467 l 0 596 l 206 737 q 248 737 278 720 q 309 703 338 670 q 366 637 378 604 q 390 572 390 528 l 390 457 l 301 416 q 351 389 371 367 q 402 332 402 276 l 402 161 l 198 0 q 151 0 117 14 q 83 29 52 64 q 22 98 11 129 q 0 160 0 206 l 0 288 l 103 331 q 34 370 17 396 q 0 422 0 467 z m 248 439 l 248 520 q 248 570 201 593 q 186 600 153 606 l 153 525 q 153 483 177 467 q 217 451 248 439 z m 153 308 l 153 215 q 153 165 200 142 q 215 135 248 129 l 248 210 q 248 254 224 274 q 211 285 153 308 z"},"e":{"x_min":0,"x_max":362,"ha":362,"o":"m 150 -2 q 100 8 75 24 q 0 73 0 189 l 0 419 l 177 523 l 347 351 l 162 167 q 176 147 187 138 q 221 108 261 108 z m 150 390 l 150 272 l 209 331 z"},"b":{"x_min":0,"x_max":419,"ha":419,"o":"m 379 170 l 182 0 q 100 34 58 77 q 0 136 0 226 l 0 736 l 154 736 l 154 449 l 279 523 q 313 501 329 483 q 379 426 379 343 z m 154 252 q 154 216 174 195 q 203 172 220 159 l 220 334 q 220 361 216 372 q 212 382 189 402 l 154 372 z"},"%":{"x_min":0,"x_max":514,"ha":514,"o":"m 487 145 l 381 28 q 330 28 302 64 q 274 99 274 150 l 274 311 l 370 396 l 403 396 l 487 289 z m 245 463 l 213 505 l 213 447 q 177 409 160 390 q 106 331 107 330 q 57 330 28 366 q 0 403 0 453 l 0 614 l 96 698 l 130 698 l 249 547 l 355 737 l 414 737 l 119 0 l 60 0 z m 121 555 l 92 587 l 92 468 q 92 439 106 428 q 110 425 121 422 z m 395 252 l 366 284 l 366 166 q 366 136 380 125 q 384 122 395 119 z"},"m":{"x_min":0,"x_max":642,"ha":642,"o":"m 491 525 q 524 525 564 479 q 605 433 605 382 l 605 0 l 447 0 l 447 284 q 447 340 414 381 q 403 394 381 410 l 381 0 l 223 0 l 223 284 q 223 341 190 381 q 179 394 156 410 l 156 0 l 0 0 l 0 508 l 156 508 l 156 448 l 265 525 q 293 525 328 491 q 357 462 365 442 z"},",":{"x_min":0,"x_max":224,"ha":224,"o":"m 129 0 l 105 0 q 67 0 40 26 q 12 53 12 92 q 12 130 39 158 q 66 186 105 186 q 144 186 172 158 q 199 131 199 93 q 199 69 187 43 q 185 39 181 32 l 120 -111 l 82 -111 z"},"n":{"x_min":0,"x_max":419,"ha":419,"o":"m 266 528 q 305 505 324 482 q 382 413 382 301 l 382 0 l 224 0 l 224 285 q 224 344 190 385 q 179 398 156 414 l 156 0 l 0 0 l 0 509 l 156 509 l 156 450 z"},"h":{"x_min":0,"x_max":419,"ha":419,"o":"m 156 0 l 0 0 l 0 735 l 156 735 l 156 449 l 262 522 q 301 522 337 476 q 381 420 381 338 l 381 0 l 223 0 l 223 252 q 223 318 202 352 q 189 373 156 382 z"},"z":{"x_min":0,"x_max":423,"ha":423,"o":"m 368 0 l 64 0 l 0 90 l 207 425 q 166 429 129 429 q 96 429 67 425 q 59 424 31 418 l 31 507 l 327 507 l 388 418 l 180 81 q 213 77 250 77 q 297 77 336 83 q 349 85 368 90 z"},"B":{"x_min":0,"x_max":440,"ha":440,"o":"m 0 0 l 0 598 l 183 737 q 267 737 327 682 q 387 626 387 543 q 387 449 304 394 q 353 358 378 312 q 404 267 411 205 q 411 195 412 184 q 413 174 413 168 q 413 151 408 123 l 257 0 z m 156 325 l 156 181 l 248 181 q 248 244 228 281 q 204 325 156 325 z m 231 514 q 231 554 213 575 q 195 596 166 596 q 159 595 156 595 l 156 433 q 187 433 209 457 q 231 481 231 514 z"},"K":{"x_min":0,"x_max":476,"ha":476,"o":"m 0 736 l 181 736 l 181 439 q 211 439 226 460 q 241 482 241 514 q 241 539 231 564 q 221 588 203 601 l 335 739 q 362 719 386 672 q 410 625 410 579 q 410 531 382 484 q 355 438 311 409 q 372 380 399 347 q 437 300 437 218 l 437 0 l 256 0 l 256 81 q 256 197 245 247 q 228 324 180 324 l 180 0 l 0 0 z"},"R":{"x_min":0,"x_max":457,"ha":457,"o":"m 424 383 l 317 318 q 349 318 384 276 q 424 228 424 170 l 424 0 l 256 0 q 256 123 248 161 q 233 232 181 232 l 181 0 l 0 0 l 0 596 l 183 736 q 280 736 346 656 q 424 561 424 383 z m 181 584 l 181 342 l 255 386 l 255 440 q 255 472 254 488 q 252 505 246 517 q 233 548 218 564 q 200 584 181 584 z"},"T":{"x_min":0,"x_max":476,"ha":476,"o":"m 122 595 l 0 595 l 34 736 l 450 736 l 450 595 l 307 595 l 307 0 l 122 0 z"},"P":{"x_min":0,"x_max":471,"ha":471,"o":"m 0 0 l 0 597 l 184 739 q 232 739 276 719 q 343 688 382 619 q 432 530 432 383 l 180 232 l 180 0 z m 181 586 l 181 343 l 255 388 q 255 400 255 411 q 255 457 254 483 q 252 509 245 523 q 229 556 216 569 q 200 586 181 586 z"},"t":{"x_min":0,"x_max":328,"ha":328,"o":"m 157 -13 q 119 9 100 28 q 43 85 43 164 l 43 411 l 0 411 l 201 614 l 201 500 l 292 500 l 292 411 l 199 411 l 199 187 q 199 142 243 105 q 257 93 288 77 z"},"M":{"x_min":0,"x_max":633,"ha":633,"o":"m 113 0 l 0 0 l 59 736 l 234 736 l 304 438 l 355 736 l 530 735 l 592 0 l 411 0 l 381 367 l 319 0 l 229 0 l 143 367 z"},"g":{"x_min":0,"x_max":428,"ha":428,"o":"m 240 -42 q 211 -15 182 -4 q 152 6 117 6 q 102 6 82 4 q 61 2 39 0 l 116 74 q 46 140 34 157 q 0 206 0 290 l 0 383 l 215 524 l 235 503 q 255 489 293 489 q 322 489 360 497 q 372 499 392 505 l 328 422 q 354 403 364 383 q 382 348 382 302 q 382 252 366 216 q 349 181 266 101 q 325 47 346 22 q 398 -39 398 -84 q 398 -95 398 -99 q 398 -118 360 -157 q 303 -213 252 -264 q 154 -264 85 -225 q 62 -212 35 -186 l 132 -59 q 154 -91 169 -107 q 216 -156 263 -156 q 263 -153 266 -136 q 268 -118 268 -110 q 268 -90 262 -74 q 256 -58 240 -42 z m 149 279 q 149 237 156 218 q 162 200 204 159 q 220 174 228 187 q 252 226 252 278 q 252 335 217 369 q 187 398 149 398 z"},"j":{"x_min":0,"x_max":381,"ha":381,"o":"m 150 637 q 150 678 178 706 q 207 735 248 735 q 290 735 318 707 q 346 679 346 637 q 346 595 318 567 q 290 539 248 539 q 207 539 178 568 q 150 596 150 637 z m 169 -82 l 169 508 l 327 508 l 327 -20 l 158 -190 l 105 -190 l 0 -147 l 0 23 q 37 -12 59 -29 q 128 -82 169 -82 z"},"i":{"x_min":0,"x_max":228,"ha":228,"o":"m 0 637 q 0 678 28 706 q 57 735 98 735 q 139 735 168 706 q 196 678 196 637 q 196 595 168 567 q 140 539 98 539 q 57 539 28 568 q 0 596 0 637 z m 18 0 l 18 508 l 176 508 l 176 0 z"},"y":{"x_min":0,"x_max":419,"ha":419,"o":"m 110 -8 q 73 18 55 40 q 0 107 0 203 l 0 507 l 155 507 l 155 218 q 155 162 189 130 q 200 120 223 109 l 223 507 l 381 507 l 381 -101 l 223 -265 l 39 -211 l 39 -21 q 80 -59 104 -78 q 179 -136 223 -136 l 223 59 z"},".":{"x_min":0,"x_max":224,"ha":224,"o":"m 0 103 q 0 146 30 176 q 60 206 103 206 q 146 206 176 176 q 206 146 206 103 q 206 61 176 30 q 145 0 103 0 q 61 0 30 30 q 0 61 0 103 z"},"p":{"x_min":0,"x_max":419,"ha":419,"o":"m 158 507 l 158 450 l 280 513 q 301 501 312 490 q 382 421 382 283 l 382 105 l 231 0 l 158 0 l 158 -234 l 0 -234 l 0 507 z m 224 59 l 224 271 q 224 325 191 363 q 180 375 158 390 l 158 181 q 158 124 181 93 q 195 74 224 59 z"},"X":{"x_min":0,"x_max":476,"ha":476,"o":"m 181 0 l 0 0 l 0 286 l 134 382 q 58 444 43 460 q 0 507 0 560 l 0 736 l 181 736 l 181 594 q 181 559 201 528 q 221 496 257 470 l 257 736 l 438 736 l 438 462 l 343 396 q 394 335 404 320 q 438 267 438 207 l 438 0 l 257 0 l 257 174 q 257 210 243 245 q 229 280 208 303 l 181 284 z"},"*":{"x_min":0,"x_max":247,"ha":247,"o":"m 145 594 l 86 594 l 86 658 l 29 626 l 0 677 l 56 710 l 0 742 l 29 794 l 86 761 l 86 826 l 145 826 l 145 761 l 201 794 l 230 742 l 174 710 l 230 677 l 201 626 l 145 658 z"},"Y":{"x_min":0,"x_max":476,"ha":476,"o":"m 317 0 l 134 0 l 134 314 q 89 351 67 378 q 0 462 0 559 l 0 736 l 180 736 l 180 577 q 180 509 229 462 q 271 422 309 422 l 309 736 l 437 736 l 437 377 l 317 258 z"},"c":{"x_min":0,"x_max":347,"ha":347,"o":"m 260 108 l 153 0 q 123 3 105 9 q -1 49 -1 196 l -1 415 l 186 522 l 313 403 l 217 310 l 150 373 l 150 234 q 150 156 205 124 q 223 114 260 108 z"},"!":{"x_min":0,"x_max":224,"ha":224,"o":"m 159 247 l 44 247 l 7 735 l 195 735 z m 0 103 q 0 146 30 176 q 60 206 103 206 q 146 206 176 176 q 206 146 206 103 q 206 61 176 30 q 145 0 103 0 q 61 0 30 30 q 0 61 0 103 z"},"/":{"x_min":0,"x_max":418,"ha":418,"o":"m 295 636 l 270 664 l 397 891 l 456 891 l 58 -101 l 0 -101 z"},"[":{"x_min":0,"x_max":281,"ha":281,"o":"m 103 840 l 239 840 l 239 755 l 128 755 l 128 -28 l 241 -28 l 241 -111 l 0 -111 l 0 737 z"},"6":{"x_min":0,"x_max":476,"ha":476,"o":"m 429 155 l 226 0 q 163 0 89 90 q 0 198 0 345 q 0 464 50 576 q 106 701 207 775 l 257 682 q 239 664 228 650 q 163 564 163 442 l 294 557 q 339 528 361 505 q 428 436 428 348 z m 191 248 q 210 216 232 196 q 254 176 272 176 l 272 315 q 272 351 238 391 q 204 431 163 442 q 163 422 162 404 q 162 385 162 367 q 162 331 168 304 q 173 276 191 248 z"},"r":{"x_min":0,"x_max":293,"ha":293,"o":"m 159 0 l 0 0 l 0 508 l 159 508 l 159 462 q 185 487 216 504 q 256 526 273 526 l 250 322 q 228 337 216 344 q 177 367 159 367 z"},"2":{"x_min":0,"x_max":428,"ha":428,"o":"m 383 0 l 14 1 q 18 1 69 70 q 132 156 172 239 q 228 356 228 446 q 228 496 202 525 q 175 554 136 561 q 121 564 107 564 q 32 564 0 497 l 0 674 q 37 707 74 722 q 112 736 163 736 q 263 736 332 669 q 401 602 401 499 q 401 436 355 347 q 324 287 269 213 q 225 154 223 154 l 383 154 z"},"9":{"x_min":0,"x_max":476,"ha":476,"o":"m 0 596 l 202 751 q 264 751 338 661 q 428 552 428 406 q 428 287 386 188 q 337 72 237 0 l 113 1 q 118 1 152 36 q 197 83 225 140 q 265 221 265 308 l 134 194 q 89 224 67 247 q 0 318 0 406 z m 236 503 q 216 536 197 554 q 175 575 156 575 l 156 437 q 156 399 190 360 q 223 320 265 308 l 265 364 q 265 414 260 442 q 255 471 236 503 z"}," ":{"x_min":0,"x_max":328,"ha":328,"o":""},"I":{"x_min":0,"x_max":228,"ha":228,"o":"m 0 0 l 0 736 l 189 736 l 189 0 z"},"H":{"x_min":0,"x_max":471,"ha":471,"o":"m 0 0 l 0 736 l 181 736 l 181 436 l 256 436 l 256 736 l 437 736 l 437 0 l 256 0 l 256 325 l 181 325 l 181 0 z"},"4":{"x_min":0,"x_max":538,"ha":538,"o":"m 440 0 l 257 0 l 257 137 l 0 136 q 59 196 98 350 q 133 489 133 621 q 133 697 120 736 l 299 736 q 299 614 241 446 q 183 278 137 248 l 257 249 l 257 441 l 440 588 l 440 249 l 508 249 l 464 137 l 440 137 z"},"~":{"x_min":0,"x_max":395,"ha":395,"o":"m 380 637 q 365 591 336 566 q 307 540 267 540 q 254 540 240 543 q 227 546 212 553 q 189 566 177 572 q 154 584 135 584 q 121 584 110 580 q 85 571 57 542 l 46 553 q 61 599 90 624 q 119 650 159 650 q 172 650 186 647 q 199 644 214 637 q 237 624 249 618 q 272 606 291 606 q 309 606 328 616 q 348 625 369 648 z"},"D":{"x_min":0,"x_max":466,"ha":466,"o":"m 0 598 l 183 738 q 266 738 349 626 q 440 503 440 348 l 440 176 l 262 0 l 0 0 z m 259 402 q 259 478 224 518 q 208 537 162 561 l 162 180 l 259 181 z"},"^":{"x_min":0,"x_max":395,"ha":395,"o":"m 394 539 l 356 522 l 203 600 l 54 522 l 16 539 l 205 689 z"},"0":{"x_min":0,"x_max":485,"ha":485,"o":"m 0 578 l 243 776 l 441 604 l 441 161 l 245 0 q 131 70 71 144 q 0 232 0 333 z m 257 534 l 183 599 l 183 335 q 183 271 220 233 q 232 221 257 208 z"},"F":{"x_min":0,"x_max":381,"ha":381,"o":"m 181 0 l 0 0 l 0 596 l 184 735 l 377 735 l 340 574 l 181 574 l 181 433 l 341 433 l 341 323 l 181 323 z"},"`":{"x_min":0,"x_max":395,"ha":395,"o":"m 289 552 l 251 535 l -4 634 l 100 702 z"},"k":{"x_min":0,"x_max":409,"ha":409,"o":"m 374 403 q 374 339 333 307 q 320 297 291 287 q 319 272 332 260 q 374 223 374 176 l 374 0 l 220 0 l 220 142 q 220 189 188 208 q 178 214 155 218 l 155 0 l 0 0 l 0 736 l 155 736 l 155 331 q 168 331 175 332 q 220 342 220 394 l 220 508 l 374 508 z"},"u":{"x_min":0,"x_max":419,"ha":419,"o":"m 116 -20 q 77 4 58 27 q 0 96 0 204 l 0 509 l 159 509 l 159 219 q 159 163 193 124 q 204 111 227 96 l 227 509 l 383 509 l 383 0 l 227 0 l 227 58 z"},"]":{"x_min":0,"x_max":289,"ha":289,"o":"m 138 -112 l 2 -112 l 2 -28 l 112 -28 l 112 755 l 0 755 l 0 839 l 241 839 l 241 -10 z"},"U":{"x_min":0,"x_max":476,"ha":476,"o":"m 0 736 l 180 736 l 180 290 q 180 230 218 189 q 230 176 257 159 l 257 736 l 438 736 l 438 0 l 257 0 l 257 69 l 167 -21 q 111 24 82 56 q 41 102 22 152 q 0 210 0 290 z"},"o":{"x_min":0,"x_max":419,"ha":419,"o":"m 381 148 l 204 0 q 189 0 152 15 q 92 39 54 85 q 0 149 0 243 l 0 374 l 191 514 l 381 361 z m 224 311 l 156 365 l 156 247 q 156 198 190 165 q 201 155 224 142 z"},"N":{"x_min":0,"x_max":500,"ha":500,"o":"m 326 382 l 326 736 l 461 736 l 461 0 l 284 0 l 138 414 l 138 0 l 0 0 l 0 630 l 195 736 z"},"G":{"x_min":0,"x_max":433,"ha":433,"o":"m 244 0 q 217 0 181 11 q 110 33 64 83 q 0 154 0 270 q 0 382 -1 458 q -2 533 -5 599 l 185 737 q 225 737 278 694 q 326 655 348 616 l 245 456 q 245 478 210 525 q 176 572 158 572 l 157 325 q 157 268 186 232 q 211 201 237 201 l 237 388 l 406 388 l 406 189 z"},"q":{"x_min":0,"x_max":419,"ha":419,"o":"m 159 507 l 322 463 l 383 510 l 383 -241 l 225 -241 l 225 50 l 105 -20 q 56 22 32 56 q 0 103 0 155 l 0 415 z m 225 292 q 225 337 206 376 q 186 414 159 414 l 159 200 q 159 167 192 126 q 203 113 225 92 z"},"d":{"x_min":0,"x_max":419,"ha":419,"o":"m 226 0 l 226 56 l 101 -16 q 36 58 32 65 q 0 119 0 213 l 0 385 l 152 507 q 177 504 189 502 q 226 494 226 480 l 226 736 l 385 736 l 385 0 z m 155 228 q 155 186 189 150 q 200 138 224 122 l 224 332 q 224 374 190 395 q 179 402 155 408 z"},"1":{"x_min":0,"x_max":224,"ha":224,"o":"m 0 0 l 0 649 l 184 744 l 184 0 z"},"5":{"x_min":0,"x_max":476,"ha":476,"o":"m 438 331 l 438 158 l 284 0 q 198 0 137 20 q 45 50 0 124 l 126 271 q 131 213 170 170 q 208 126 258 121 l 259 299 q 259 335 240 352 q 221 369 190 369 q 148 369 98 346 q 49 322 30 299 l 88 735 l 402 735 l 402 599 l 187 599 l 170 465 q 210 488 242 498 q 275 508 303 508 q 369 508 405 455 q 438 407 438 331 z"}}}
